<?xml version="1.0" encoding="UTF-8"?>
<svg id="Layer_2" data-name="Layer 2" xmlns="http://www.w3.org/2000/svg" viewBox="0 0 1080 571.12">
  <defs>
    <style>
      .cls-1 {
        fill: #e50c26;
        stroke-width: 0px;
      }
    </style>
  </defs>
  <g id="object">
    <g id="W:_1080_px" data-name="W: 1080 px">
      <path class="cls-1" d="m607.49,402.31c5.38-14.23,7.35-30.45,5.95-45.56-2.73-29.53-15.72-56.56-32.79-80.45-7.93-11.11-22.31.02-29.33,13.83.47-5.25.75-10.55.67-15.9-.1-7.92-5.39-14.38-13.72-12.41-9.42,2.22-16.86,12.33-19.99,20.9-4.67,12.83-6.06,26.41-5.57,40.12-1.37,4.97-3.19,9.85-5.49,14.69-.15.23-1.13,2.09-1.27,2.35-1.16,2.08-2.33,4.15-3.58,6.17-.18.29-1.48,2.18-1.99,2.97-.68.81-1.93,2.34-2.49,3,.05-.14-2.47,2.15-3.01,2.41-2.38,1.1-4.97,1.34-7.69.83-13.33-2.47-21.28-18.27-25.31-29.75-5.81-16.54-7.49-33.89-9.01-51.24-.91-10.38-8.55-15.82-18.29-10.56-9.61,5.19-18.58,19.2-17.59,30.47,2.09,23.84,4.22,48.33,14.15,70.41,9.1,20.27,26.05,39.96,50.61,35.83,15.93-2.68,28.97-14.33,38.96-27.86.62,2.49,1.23,4.97,1.86,7.41,6.12,23.91,16.87,67.61,50.89,58.82,16.67-4.31,28.3-21.35,34.03-36.5m-42.46-25.49c-3.78-10.65-6.83-21.62-9.43-32.62-2.35-9.94-4.32-20.01-5.7-30.14,11.72,16.44,21.58,34.09,26.12,53.92,1.87,8.16,2.57,16.9,1.36,24.96-.02.08-.05.26-.09.49-6.7-2.79-9.96-10.1-12.27-16.61Z"/>
      <path class="cls-1" d="m376.01,352.8c5.64,14.52,11.26,29.68,13.15,45.24.78,6.42.91,14.33.22,19.07-.24,1.65-.59,3.27-.87,4.91-.08.48-.34,1.67-.42,2.1-.41,1.33-.85,2.66-1.34,3.96-.14.38-1.32,2.95-1.74,3.96-.5.82-1.21,2.03-1.33,2.24-.06.1-.07.13-.13.22-.1.12-.15.17-.3.34-.18.22-1.46,1.71-1.97,2.34-.63.54-2.07,1.85-2.29,2.03-.31.25-.48.41-.64.55-.15.08-.28.15-.52.3-1.31.81-2.66,1.57-4.06,2.2-1.51.68-3.96,1.4-6.35,1.94-11.49,2.6-22.38-.64-31.14-8.36-3.17-2.79-9.86-.54-12.79,1.03-5.05,2.71-9.89,8.09-12.58,13.05-4.97,9.17-8.27,21.31.49,29.02,13.08,11.53,32.18,13.92,48.72,9.75,21.41-5.39,38.12-21.06,49.41-39.48,24.21-39.47,16.9-85.2,1-126.08-9.28-23.89-41.32,12.22-34.54,29.68"/>
      <path class="cls-1" d="m633.57,355.77c5.64,14.52,11.26,29.68,13.15,45.24.78,6.42.9,14.33.22,19.07-.24,1.65-.59,3.27-.87,4.91-.07.47-.34,1.67-.42,2.1-.4,1.33-.85,2.66-1.34,3.96-.14.37-1.33,2.95-1.75,3.96-.49.82-1.21,2.03-1.33,2.24-.06.1-.07.13-.13.22-.1.11-.15.17-.3.34-.18.22-1.46,1.71-1.97,2.34-.63.54-2.07,1.85-2.3,2.03-.31.25-.48.41-.63.54-.16.09-.28.15-.53.31-1.3.8-2.66,1.57-4.06,2.2-1.51.68-3.96,1.4-6.34,1.94-11.49,2.6-22.38-.64-31.14-8.36-3.17-2.8-9.86-.54-12.79,1.03-5.05,2.71-9.9,8.08-12.59,13.05-4.97,9.17-8.27,21.31.49,29.02,13.09,11.53,32.18,13.92,48.72,9.75,21.41-5.39,38.12-21.06,49.41-39.48,24.21-39.48,16.89-85.2,1.01-126.09-9.29-23.89-41.33,12.22-34.54,29.68"/>
      <path class="cls-1" d="m352.45,392.53c20.4-23.85,16.14-53.36,11.14-81.81-4.49-25.59-11.11-50.72-19.55-75.29-.36-1.05-.84-1.88-1.34-2.69,55.75-25.37,112.46-48.49,170.17-69.08,11.29-4.03,19.54-15.09,21.66-26.81,1.44-7.93-1.87-22-13.23-17.94-66.13,23.6-131.16,50.23-194.85,79.81-10.38,4.82-17.92,19.35-17.59,30.47.17,5.99,2.65,9.78,6.33,11.42-4.99,7.3-8.34,16.8-5.7,24.5,6.25,18.17,11.52,36.65,15.63,55.42,2.11,9.64,3.93,19.33,5.44,29.08.61,3.89,1.19,7.78,1.52,11.71.02.16.01.33.02.49-5.9-5.06-9.33-14.86-12.76-21.57-8.69-17.04-16.59-34.43-23.83-52.13-3.8-9.28-12.21-9.45-19.88-4.07-8.43,5.89-16.25,18.18-15.33,28.88.56,6.56.6,12.72-.56,19.06-.7,3.76-.88,4.71-1.79,7.4-1.77,5.23-3.55,9.64-6.36,14.4-4.37,7.41-9.34,12.6-16.22,18.62-19.48,17.04-45.25,27.88-71.09,33.05-49.4,9.88-110-8.08-128.91-59.32-8.84-23.97-41.02,12.1-34.54,29.68,17.76,48.14,65.39,76.92,115.73,77.99,54.6,1.16,112.95-23.69,147.62-66.37,6.26-7.71,11.84-16.15,16.56-25.06,4.28,8.91,8.71,17.76,13.43,26.42,5.17,9.49,12.29,18.69,23.72,20.4,13.26,1.97,26.38-7.11,34.54-16.64"/>
      <path class="cls-1" d="m124.02,312.75c21.35-8,43.23-14.28,65.59-18.8,11.23-2.27,22-14.48,24.35-25.41,2.36-11-4.88-16.71-15.25-14.61-22.35,4.52-44.23,10.79-65.59,18.8-11.16,4.18-21.73,13.23-24.35,25.41-2.05,9.59,4.79,18.53,15.25,14.61"/>
      <path class="cls-1" d="m784.03,329.85c4.52,7,8,14.71,9.09,23.06.57,4.34.39,7.6-.3,11.41-.16.69-.23,1.04-.25,1.17-.16.44-.32.89-.47,1.33-.27.71-.44,1.21-.53,1.54-.23.26-.5.6-.88,1.1,2.21-2.9-.15.1-1.22,1.34-.04.04-.06.05-.08.09-.54.47-1.08.94-1.61,1.41-1.83,1.21-3.57,2.53-6.44,3.54-7.47,2.63-16.16,1.82-23.37-1.25-39.48-16.77-36.37-65.27-32.24-100.52,1.05-8.9-1.6-20.68-13.23-17.94-10.73,2.53-20.42,16.26-21.66,26.81-3.47,29.48-7.2,60.81,3.13,89.43,9.16,25.39,29.35,47.54,57.53,50.33,30.12,2.98,56.56-19.74,68.8-45.54,13.17-27.75,11.29-59.08-5.4-84.91-11.71-18.14-41.45,21.2-30.87,37.59"/>
      <path class="cls-1" d="m751.26,260.69c1.2,1.89,2.84,3.01,4.93,3.36,2.01.9,4.1.98,6.28.22,5.04-1.17,10.3-5.51,13.38-9.45,3.91-5,7.34-11,8.28-17.36l.5-5.53c.05-3.2-.79-6.15-2.51-8.83l-8.96-8.96c-1.2-1.89-2.85-3.01-4.93-3.36-2.01-.9-4.1-.98-6.29-.22-5.03,1.17-10.3,5.51-13.37,9.45-3.91,5-7.34,11-8.28,17.36-.16,1.84-.34,3.69-.5,5.53-.04,3.21.8,6.15,2.51,8.84,2.99,2.99,5.98,5.97,8.96,8.96"/>
      <path class="cls-1" d="m885.58,266.07c-1.54-11.33-12.99-11.34-21.25-6.75-9.11,5.06-19.95,17.73-18.4,29.14,2.66,19.55,4.25,39.23,4.57,58.96.15,9.34.04,18.69-.35,28.02-.28,6.62-.11,16.99-2.99,21.69-4.32,7.06-8.64,21.67,2.36,25.18,1.99.64,4.04.75,6.09.48,7.64.07,20.43.36,23.44-2.1.14-.13.33-.31.52-.49,8.18-3.85,10.6-68.5,10.65-85.83.07-22.86-1.55-45.67-4.63-68.31"/>
      <path class="cls-1" d="m667.66,528.51c36.82,14.62,77.02,18.26,115.57,10.93,39.35-7.49,76.98-26.5,107.52-57.03,8.05-8.05,15.29-16.59,21.74-25.52l.03-.04.07-.1.59-.84c2.2-3.11,4.08-5.89,5.64-8.35.09-.14.18-.28.28-.42,14.17-22.21,23.67-46.51,28.52-71.52,7.83-40.37,3.59-82.61-12.7-120.9l-2.67-6.27,3.43-5.96c4.64-8.07,10.29-15.58,16.89-22.3,6.42-6.53,13.77-12.38,22.02-17.32,12.86-7.72,26.64-12.52,40.57-14.6,3.83-.57,7.68-.94,11.52-1.1-2.49-2.52-5.11-4.86-7.86-7-8.1-6.33-17.23-11.03-26.86-13.98l-16.63-5.08,8.7-14.97c2.2-3.79,4.11-7.73,5.68-11.81,1.52-3.94,2.77-8.13,3.72-12.56,1.53-7.15,2.1-14.21,1.8-21.08-.2-4.61-.79-9.15-1.74-13.6l-.78-.17c-10.33-2.21-20.56-2.42-30.29-.9-10.14,1.59-19.8,5.06-28.55,10.1l-14.97,8.62-5.03-16.54c-2.94-9.67-7.64-18.83-13.97-26.94-2.08-2.67-4.34-5.22-6.77-7.64-.16,3.81-.52,7.63-1.09,11.44-2.07,13.96-6.87,27.77-14.61,40.65-4.94,8.23-10.78,15.58-17.3,21.99-6.71,6.59-14.21,12.24-22.27,16.88l-5.96,3.43-6.27-2.68-1.13-.47c-1.85.06-3.74-.25-5.56-.98-45.95-18.58-95.39-19.19-139.98-4.56-6.7,2.2-13.29,4.74-19.75,7.62-22.26,10.02-43.13,24.18-61.45,42.5-9.67,9.67-18.17,20.02-25.48,30.88l-1,.91c-1.09,1.64-2.17,3.3-3.22,4.98-1.42,2.26-3.12,5.16-5.09,8.67-1.58,2.81-3.14,5.77-4.69,8.86-3.39,6.82-11.67,9.59-18.49,6.2-6.82-3.39-9.59-11.67-6.2-18.49,1.64-3.29,3.42-6.64,5.33-10.05,1.52-2.71,3.47-5.96,5.84-9.75,23.16-36.96,55.13-65.53,91.63-84.3,20.06-10.37,41.32-17.66,63.06-21.87,43.35-8.39,88.63-4.46,130.23,11.78,3.92-2.69,7.64-5.76,11.13-9.19,4.91-4.83,9.29-10.34,12.99-16.5,5.79-9.64,9.39-20.01,10.94-30.52,1.62-10.92,1.02-21.97-1.63-32.51l-7.19-28.57,26.54,12.83c1.56.75,3.04,1.51,4.44,2.26,1.3.7,2.75,1.54,4.38,2.51,11.99,7.2,22.13,16.32,30.26,26.74,5.11,6.55,9.43,13.62,12.91,21.04,7.59-3.03,15.55-5.23,23.74-6.51,13.05-2.05,26.64-1.79,40.21,1.11,1.7.36,3.47.79,5.3,1.28,1.4.37,3.14.89,5.2,1.55l6.88,2.19,2.12,6.86c2.73,8.86,4.37,18.14,4.79,27.65.4,9.24-.34,18.63-2.34,27.97-1.22,5.72-2.91,11.32-5.01,16.76l-.55,1.39c7.38,3.48,14.4,7.78,20.91,12.86,10.4,8.13,19.5,18.25,26.68,30.21.99,1.65,1.84,3.14,2.56,4.46.63,1.16,1.41,2.72,2.33,4.65l12.69,26.4-28.43-7.1c-10.5-2.62-21.52-3.2-32.42-1.58-10.48,1.56-20.82,5.16-30.44,10.93-6.16,3.7-11.69,8.09-16.52,13.01-3.43,3.5-6.51,7.24-9.21,11.17,16.19,41.59,20.1,86.84,11.7,130.15-7.58,39.08-25.12,76.59-52.62,108.43-36.37,42.42-85.13,69.08-136.84,78.29-55.01,9.79-113.39-.18-163.74-31.94-6.43-4.05-8.36-12.54-4.31-18.97,4.05-6.43,12.54-8.36,18.97-4.31,10.17,6.42,20.72,11.82,31.52,16.23"/>
      <g>
        <path class="cls-1" d="m61.38,565.93c-4.96,0-7.63-2.87-8.03-5.75-.59-3.96-.99-6.94-1.59-9.51h-23.88c-1.19,5.05-2.28,10.21-3.07,15.26h-4.66c-3.96,0-5.45-2.08-5.45-5.75,0-8.62,11.1-43.8,20.32-54.01h4.86c4.56,0,8.03,2.68,9.71,5.55,5.35,9.61,14.37,35.58,16.75,54.21h-4.96Zm-21.61-48.76c-3.47,6.24-7.23,15.66-9.22,23.98h18.43c-1.98-8.33-6.05-18.43-9.22-23.98Z"/>
        <path class="cls-1" d="m117.77,565.93c-4.66,0-9.71-1.39-17.15-15.76l-10.9-21.21c-1.59-3.37-2.97-5.55-3.96-7.04v44h-4.76c-3.47,0-7.23-2.58-7.23-7.83v-51.93h5.95c7.73,0,12.98,4.16,16.95,12.19l10.41,21.01c1.19,2.48,2.78,5.95,3.57,8.03v-41.23h5.25c3.07,0,6.54,3.07,6.54,6.94v52.82h-4.66Z"/>
        <path class="cls-1" d="m177.53,565.93c-4.96,0-7.63-2.87-8.03-5.75-.59-3.96-.99-6.94-1.59-9.51h-23.88c-1.19,5.05-2.28,10.21-3.07,15.26h-4.66c-3.96,0-5.45-2.08-5.45-5.75,0-8.62,11.1-43.8,20.32-54.01h4.86c4.56,0,8.03,2.68,9.71,5.55,5.35,9.61,14.37,35.58,16.75,54.21h-4.96Zm-21.61-48.76c-3.47,6.24-7.23,15.66-9.22,23.98h18.43c-1.98-8.33-6.05-18.43-9.22-23.98Z"/>
        <path class="cls-1" d="m229.36,566.33c-3.87,0-7.14-1.49-8.72-5.25l-4.46-10.8c-2.68-6.54-5.25-7.04-8.33-7.53-2.68-.4-4.76-.79-5.95-.79v23.98h-3.87c-5.35,0-8.13-3.27-8.13-8.03v-50.05c2.58-.99,10.9-2.18,15.36-2.18h6.64c11.89,0,19.62,7.13,19.62,17.14,0,8.13-5.35,14.87-12.29,15.86,3.17,1.39,5.95,4.96,7.43,8.42l4.76,11.2c1.49,3.47,2.97,5.05,3.67,6.14-1.39,1.49-2.48,1.88-5.75,1.88Zm-22.2-50.35c-1.09,0-3.96.2-5.25.59v15.76c2.58.5,5.25.5,8.52.5,4.86,0,9.02-2.77,9.02-8.03,0-7.23-3.67-8.82-8.92-8.82h-3.37Z"/>
        <path class="cls-1" d="m307.05,565.93c-4.56,0-7.73-2.58-7.73-7.93,0-7.63-1.29-29.53-2.28-35.38-.79,1.88-1.88,4.36-2.77,7.04l-8.32,25.67c-1.39,4.26-3.27,8.23-4.96,10.6h-3.17c-3.96,0-7.43-3.07-9.61-9.51l-8.52-25.17c-1.09-3.07-2.48-6.64-3.37-8.72-1.59,8.52-2.58,32.51-2.58,43.41h-4.16c-4.46,0-7.53-2.87-7.53-7.93,0-13.38,2.58-39.94,4.76-51.83h2.58c8.32,0,14.07,3.77,16.35,10.11l8.32,23.39c1.78,5.05,2.87,8.62,3.37,11.4.5-2.28.99-4.16,1.69-6.14l6.94-21.21c3.07-9.42,6.74-15.56,9.32-17.54h1.39c6.74,0,10.9,4.16,11.89,12.39,1.09,9.42,2.87,35.38,2.87,47.37h-4.46Z"/>
        <path class="cls-1" d="m365.03,565.93c-4.96,0-7.63-2.87-8.03-5.75-.59-3.96-.99-6.94-1.59-9.51h-23.88c-1.19,5.05-2.28,10.21-3.07,15.26h-4.66c-3.96,0-5.45-2.08-5.45-5.75,0-8.62,11.1-43.8,20.32-54.01h4.86c4.56,0,8.03,2.68,9.71,5.55,5.35,9.61,14.37,35.58,16.75,54.21h-4.96Zm-21.61-48.76c-3.47,6.24-7.23,15.66-9.22,23.98h18.43c-1.98-8.33-6.05-18.43-9.22-23.98Z"/>
        <path class="cls-1" d="m416.86,566.33c-3.87,0-7.14-1.49-8.72-5.25l-4.46-10.8c-2.68-6.54-5.25-7.04-8.33-7.53-2.68-.4-4.76-.79-5.95-.79v23.98h-3.87c-5.35,0-8.13-3.27-8.13-8.03v-50.05c2.58-.99,10.9-2.18,15.36-2.18h6.64c11.89,0,19.62,7.13,19.62,17.14,0,8.13-5.35,14.87-12.29,15.86,3.17,1.39,5.95,4.96,7.43,8.42l4.76,11.2c1.49,3.47,2.97,5.05,3.67,6.14-1.39,1.49-2.48,1.88-5.75,1.88Zm-22.2-50.35c-1.09,0-3.96.2-5.25.59v15.76c2.58.5,5.25.5,8.52.5,4.86,0,9.02-2.77,9.02-8.03,0-7.23-3.67-8.82-8.92-8.82h-3.37Z"/>
        <path class="cls-1" d="m443.91,514.2v18.63c5.35-7.83,10.6-15.96,17.15-22.99,3.17-3.37,4.46-3.67,9.12-3.67h8.23v.5c-4.66,4.66-16.55,18.93-22.5,27.45,5.55,8.13,10.8,17.24,18.53,23.59,1.68,1.39,2.97,2.08,4.76,2.48-1.09,4.26-2.97,6.04-7.73,6.04-2.87,0-6.24-1.49-8.33-3.86-7.33-8.42-13.28-17.15-19.23-26.56v30.13h-3.96c-5.75,0-7.83-3.96-7.83-8.13v-51.63h3.87c5.75,0,7.93,3.87,7.93,8.03Z"/>
        <path class="cls-1" d="m527.26,558.99c0,4.76-2.68,7.33-13.08,7.33h-6.34c-14.57,0-22.2-8.03-22.2-23.29v-11c0-5.75.4-12.09,1.09-16.85.99-7.14,4.26-9.02,9.22-9.02h31.22v4.06c0,4.16-2.58,6.24-8.03,6.24h-20.52c-.59,4.36-.89,10.21-.89,13.97h22.99v4.26c0,3.96-2.38,5.45-7.23,5.45h-15.76v3.57c0,10.31,3.37,12.39,12.69,12.39h3.77c4.36,0,8.82-.4,13.08-1.39v4.26Z"/>
        <path class="cls-1" d="m570.17,516.67h-11v49.26h-4.76c-4.16,0-7.24-2.68-7.24-8.03v-41.23h-17.24v-3.96c0-2.87,2.38-6.54,7.23-6.54h40.14v3.77c0,2.87-3.17,6.74-7.13,6.74Z"/>
      </g>
    </g>
  </g>
</svg>