<?xml version="1.0" encoding="UTF-8"?>
<svg id="Layer_2" data-name="Layer 2" xmlns="http://www.w3.org/2000/svg" viewBox="0 0 540 285.56">
  <defs>
    <style>
      .cls-1 {
        stroke-width: 0px;
      }
    </style>
  </defs>
  <g id="object">
    <g id="W:_540_px_BLACK" data-name="W: 540 px BLACK">
      <path class="cls-1" d="m303.75,201.15c2.69-7.11,3.68-15.23,2.98-22.78-1.36-14.76-7.86-28.28-16.4-40.23-3.97-5.56-11.15.01-14.66,6.92.24-2.63.37-5.27.33-7.95-.05-3.96-2.7-7.19-6.86-6.21-4.71,1.11-8.43,6.16-10,10.45-2.34,6.42-3.03,13.2-2.79,20.06-.68,2.48-1.59,4.92-2.75,7.35-.07.11-.56,1.05-.63,1.17-.58,1.04-1.16,2.07-1.79,3.09-.09.15-.74,1.09-1,1.48-.34.41-.96,1.17-1.25,1.5.02-.07-1.24,1.08-1.5,1.2-1.19.55-2.49.67-3.84.42-6.67-1.24-10.64-9.14-12.66-14.88-2.9-8.27-3.75-16.95-4.5-25.62-.45-5.19-4.27-7.91-9.14-5.28-4.81,2.59-9.29,9.6-8.8,15.24,1.04,11.92,2.11,24.17,7.08,35.2,4.55,10.13,13.03,19.98,25.3,17.92,7.97-1.34,14.49-7.17,19.48-13.93.31,1.25.62,2.48.93,3.71,3.06,11.96,8.43,33.8,25.45,29.41,8.33-2.15,14.15-10.68,17.01-18.25m-21.23-12.75c-1.89-5.33-3.41-10.81-4.71-16.31-1.18-4.97-2.16-10.01-2.85-15.07,5.86,8.22,10.79,17.05,13.06,26.96.94,4.08,1.29,8.45.68,12.48,0,.04-.02.13-.05.25-3.35-1.4-4.98-5.05-6.13-8.31Z"/>
      <path class="cls-1" d="m188,176.4c2.82,7.26,5.63,14.84,6.57,22.62.39,3.21.45,7.17.11,9.54-.12.82-.3,1.64-.43,2.46-.04.24-.17.84-.21,1.05-.2.67-.43,1.33-.67,1.98-.07.19-.66,1.47-.87,1.98-.25.41-.61,1.02-.66,1.12-.03.05-.04.06-.06.11-.05.06-.08.08-.15.17-.09.11-.73.85-.99,1.17-.32.27-1.03.92-1.15,1.01-.15.13-.24.2-.32.27-.08.04-.14.08-.26.15-.66.4-1.33.78-2.03,1.1-.76.34-1.98.7-3.17.97-5.74,1.3-11.19-.32-15.57-4.18-1.58-1.4-4.93-.27-6.39.51-2.52,1.36-4.95,4.04-6.29,6.53-2.48,4.59-4.13,10.65.24,14.51,6.54,5.76,16.09,6.96,24.36,4.88,10.7-2.69,19.06-10.53,24.71-19.74,12.11-19.74,8.45-42.6.5-63.04-4.64-11.94-20.66,6.11-17.27,14.84"/>
      <path class="cls-1" d="m316.78,177.89c2.82,7.26,5.63,14.84,6.57,22.62.39,3.21.45,7.17.11,9.54-.12.82-.3,1.64-.43,2.46-.04.24-.17.84-.21,1.05-.2.67-.43,1.33-.67,1.98-.07.19-.66,1.47-.87,1.98-.25.41-.6,1.02-.66,1.12-.03.05-.04.06-.06.11-.05.06-.07.09-.15.17-.09.11-.73.85-.98,1.17-.32.27-1.04.92-1.15,1.01-.15.13-.24.2-.32.27-.08.04-.14.08-.26.15-.65.4-1.33.78-2.03,1.1-.76.34-1.98.7-3.17.97-5.75,1.3-11.19-.32-15.57-4.18-1.59-1.4-4.93-.27-6.39.52-2.53,1.36-4.95,4.04-6.29,6.53-2.48,4.59-4.13,10.65.24,14.51,6.54,5.76,16.09,6.96,24.36,4.88,10.7-2.7,19.06-10.53,24.71-19.74,12.11-19.74,8.45-42.6.5-63.04-4.64-11.95-20.66,6.11-17.27,14.84"/>
      <path class="cls-1" d="m176.23,196.27c10.2-11.93,8.07-26.68,5.57-40.91-2.25-12.79-5.55-25.36-9.77-37.64-.18-.53-.42-.94-.67-1.35,27.88-12.68,56.23-24.24,85.08-34.54,5.65-2.02,9.77-7.54,10.83-13.4.72-3.97-.93-11-6.62-8.97-33.06,11.8-65.58,25.12-97.42,39.9-5.19,2.41-8.96,9.67-8.8,15.24.09,3,1.32,4.89,3.17,5.71-2.49,3.65-4.17,8.4-2.85,12.25,3.12,9.09,5.76,18.33,7.82,27.71,1.05,4.82,1.96,9.67,2.72,14.54.3,1.95.59,3.89.76,5.85,0,.08,0,.16.01.25-2.95-2.53-4.67-7.43-6.38-10.79-4.34-8.52-8.29-17.22-11.92-26.07-1.9-4.64-6.1-4.72-9.94-2.04-4.22,2.95-8.13,9.09-7.67,14.44.28,3.28.3,6.36-.28,9.53-.35,1.88-.44,2.35-.9,3.7-.88,2.61-1.78,4.82-3.18,7.2-2.18,3.7-4.67,6.3-8.11,9.31-9.74,8.52-22.62,13.94-35.54,16.53-24.7,4.94-55-4.04-64.45-29.66-4.42-11.98-20.51,6.05-17.27,14.84,8.88,24.07,32.69,38.46,57.87,38.99,27.3.58,56.48-11.85,73.81-33.19,3.13-3.85,5.92-8.07,8.28-12.53,2.14,4.46,4.36,8.88,6.71,13.21,2.59,4.74,6.14,9.35,11.86,10.2,6.63.99,13.19-3.56,17.27-8.32"/>
      <path class="cls-1" d="m62.01,156.38c10.68-4,21.62-7.14,32.79-9.4,5.61-1.13,11-7.24,12.17-12.71,1.18-5.5-2.44-8.35-7.62-7.3-11.18,2.26-22.12,5.39-32.79,9.4-5.58,2.09-10.86,6.61-12.17,12.7-1.03,4.79,2.39,9.26,7.62,7.31"/>
      <path class="cls-1" d="m392.02,164.93c2.26,3.5,4,7.36,4.54,11.53.28,2.17.2,3.8-.15,5.7-.08.35-.11.52-.12.59-.08.22-.16.44-.24.67-.14.35-.22.6-.27.77-.11.13-.25.3-.44.55,1.1-1.45-.07.05-.61.67-.02.02-.03.03-.04.05-.27.24-.54.47-.81.71-.92.6-1.78,1.27-3.22,1.77-3.74,1.32-8.08.91-11.69-.62-19.74-8.39-18.19-32.63-16.12-50.26.53-4.45-.8-10.34-6.61-8.97-5.37,1.27-10.21,8.13-10.83,13.4-1.73,14.74-3.6,30.4,1.56,44.71,4.58,12.69,14.68,23.77,28.76,25.17,15.06,1.49,28.28-9.87,34.4-22.77,6.59-13.88,5.64-29.54-2.7-42.46-5.86-9.07-20.73,10.6-15.44,18.8"/>
      <path class="cls-1" d="m375.63,130.35c.6.95,1.42,1.5,2.47,1.68,1.01.45,2.05.49,3.14.11,2.52-.59,5.15-2.75,6.69-4.72,1.95-2.5,3.67-5.5,4.14-8.68l.25-2.77c.02-1.6-.4-3.07-1.25-4.42l-4.48-4.48c-.6-.95-1.42-1.51-2.47-1.68-1.01-.45-2.05-.49-3.15-.11-2.52.59-5.15,2.75-6.69,4.73-1.95,2.5-3.67,5.5-4.14,8.68-.08.92-.17,1.84-.25,2.76-.02,1.6.4,3.08,1.25,4.42,1.5,1.49,2.99,2.99,4.48,4.48"/>
      <path class="cls-1" d="m442.79,133.03c-.77-5.67-6.49-5.67-10.63-3.37-4.56,2.53-9.98,8.87-9.2,14.57,1.33,9.78,2.12,19.61,2.28,29.48.08,4.67.02,9.35-.17,14.01-.14,3.31-.06,8.5-1.5,10.85-2.16,3.53-4.32,10.84,1.18,12.59,1,.32,2.02.38,3.04.24,3.82.03,10.21.18,11.72-1.05.07-.06.17-.15.26-.24,4.09-1.92,5.3-34.25,5.33-42.92.04-11.43-.78-22.83-2.31-34.16"/>
      <path class="cls-1" d="m333.83,264.26c18.41,7.31,38.51,9.13,57.79,5.46,19.67-3.74,38.49-13.25,53.76-28.52,4.02-4.02,7.65-8.29,10.87-12.76v-.02s.05-.05.05-.05l.3-.42c1.1-1.55,2.04-2.95,2.82-4.18.05-.07.09-.14.14-.21,7.08-11.1,11.84-23.25,14.26-35.76,3.91-20.19,1.8-41.3-6.35-60.45l-1.34-3.14,1.71-2.98c2.32-4.03,5.14-7.79,8.45-11.15,3.21-3.27,6.89-6.19,11.01-8.66,6.43-3.86,13.32-6.26,20.29-7.3,1.92-.29,3.84-.47,5.76-.55-1.24-1.26-2.56-2.43-3.93-3.5-4.05-3.17-8.61-5.52-13.43-6.99l-8.31-2.54,4.35-7.48c1.1-1.89,2.05-3.87,2.84-5.9.76-1.97,1.38-4.06,1.86-6.28.77-3.57,1.05-7.11.9-10.54-.1-2.3-.39-4.58-.87-6.8l-.39-.08c-5.17-1.11-10.28-1.21-15.15-.45-5.07.8-9.9,2.53-14.28,5.05l-7.48,4.31-2.51-8.27c-1.47-4.83-3.82-9.41-6.99-13.47-1.04-1.33-2.17-2.61-3.39-3.82-.08,1.91-.26,3.82-.54,5.72-1.03,6.98-3.44,13.88-7.3,20.33-2.47,4.12-5.39,7.79-8.65,11-3.35,3.3-7.1,6.12-11.13,8.44l-2.98,1.72-3.14-1.34-.56-.24c-.92.03-1.87-.13-2.78-.49-22.98-9.29-47.69-9.59-69.99-2.28-3.35,1.1-6.65,2.37-9.87,3.81-11.13,5.01-21.57,12.09-30.72,21.25-4.84,4.84-9.08,10.01-12.74,15.44l-.5.46c-.55.82-1.09,1.65-1.61,2.49-.71,1.13-1.56,2.58-2.54,4.34-.79,1.41-1.57,2.88-2.34,4.43-1.7,3.41-5.83,4.8-9.24,3.1-3.41-1.7-4.8-5.83-3.1-9.24.82-1.64,1.71-3.32,2.67-5.03.76-1.36,1.73-2.98,2.92-4.87,11.58-18.48,27.56-32.77,45.82-42.15,10.03-5.19,20.66-8.83,31.53-10.93,21.67-4.19,44.31-2.23,65.11,5.89,1.96-1.35,3.82-2.88,5.56-4.6,2.46-2.41,4.65-5.17,6.49-8.25,2.89-4.82,4.69-10.01,5.47-15.26.81-5.46.51-10.99-.82-16.25l-3.6-14.29,13.27,6.42c.78.38,1.52.75,2.22,1.13.65.35,1.38.77,2.19,1.26,5.99,3.6,11.06,8.16,15.13,13.37,2.56,3.28,4.71,6.81,6.45,10.52,3.79-1.51,7.77-2.61,11.87-3.26,6.53-1.02,13.32-.9,20.11.56.85.18,1.74.4,2.65.64.7.19,1.57.45,2.6.77l3.44,1.1,1.06,3.43c1.37,4.43,2.19,9.07,2.39,13.82.2,4.62-.17,9.31-1.17,13.99-.61,2.86-1.46,5.66-2.51,8.38l-.27.69c3.69,1.74,7.2,3.89,10.46,6.43,5.2,4.06,9.75,9.13,13.34,15.11.5.83.92,1.57,1.28,2.23.31.58.7,1.36,1.17,2.32l6.34,13.2-14.21-3.55c-5.25-1.31-10.76-1.6-16.21-.79-5.24.78-10.41,2.58-15.22,5.47-3.08,1.85-5.84,4.04-8.26,6.51-1.72,1.75-3.25,3.62-4.6,5.58,8.1,20.79,10.05,43.42,5.85,65.07-3.79,19.54-12.56,38.29-26.31,54.21-18.18,21.21-42.57,34.54-68.42,39.14-27.5,4.9-56.69-.09-81.87-15.97-3.21-2.02-4.18-6.27-2.16-9.49,2.02-3.21,6.27-4.18,9.49-2.16,5.08,3.21,10.36,5.91,15.76,8.12"/>
      <g>
        <path class="cls-1" d="m30.69,282.96c-2.48,0-3.81-1.44-4.01-2.87-.3-1.98-.5-3.47-.79-4.76h-11.94c-.59,2.53-1.14,5.1-1.54,7.63h-2.33c-1.98,0-2.73-1.04-2.73-2.87,0-4.31,5.55-21.9,10.16-27h2.43c2.28,0,4.01,1.34,4.86,2.77,2.68,4.81,7.18,17.79,8.37,27.1h-2.48Zm-10.8-24.38c-1.73,3.12-3.62,7.83-4.61,11.99h9.22c-.99-4.16-3.02-9.21-4.61-11.99Z"/>
        <path class="cls-1" d="m58.88,282.96c-2.33,0-4.86-.69-8.57-7.88l-5.45-10.6c-.79-1.68-1.49-2.77-1.98-3.52v22h-2.38c-1.73,0-3.62-1.29-3.62-3.91v-25.96h2.97c3.86,0,6.49,2.08,8.47,6.09l5.2,10.5c.59,1.24,1.39,2.97,1.78,4.01v-20.61h2.63c1.54,0,3.27,1.54,3.27,3.47v26.41h-2.33Z"/>
        <path class="cls-1" d="m88.76,282.96c-2.48,0-3.81-1.44-4.01-2.87-.3-1.98-.5-3.47-.79-4.76h-11.94c-.59,2.53-1.14,5.1-1.54,7.63h-2.33c-1.98,0-2.73-1.04-2.73-2.87,0-4.31,5.55-21.9,10.16-27h2.43c2.28,0,4.01,1.34,4.86,2.77,2.68,4.81,7.18,17.79,8.37,27.1h-2.48Zm-10.8-24.38c-1.73,3.12-3.62,7.83-4.61,11.99h9.22c-.99-4.16-3.02-9.21-4.61-11.99Z"/>
        <path class="cls-1" d="m114.68,283.16c-1.93,0-3.57-.74-4.36-2.63l-2.23-5.4c-1.34-3.27-2.63-3.52-4.16-3.77-1.34-.2-2.38-.4-2.97-.4v11.99h-1.93c-2.68,0-4.06-1.63-4.06-4.01v-25.02c1.29-.5,5.45-1.09,7.68-1.09h3.32c5.95,0,9.81,3.57,9.81,8.57,0,4.06-2.68,7.43-6.14,7.93,1.59.69,2.97,2.48,3.72,4.21l2.38,5.6c.74,1.73,1.49,2.53,1.83,3.07-.69.74-1.24.94-2.87.94Zm-11.1-25.17c-.54,0-1.98.1-2.63.3v7.88c1.29.25,2.63.25,4.26.25,2.43,0,4.51-1.39,4.51-4.01,0-3.62-1.83-4.41-4.46-4.41h-1.68Z"/>
        <path class="cls-1" d="m153.52,282.96c-2.28,0-3.86-1.29-3.86-3.96,0-3.81-.64-14.76-1.14-17.69-.4.94-.94,2.18-1.39,3.52l-4.16,12.83c-.69,2.13-1.63,4.11-2.48,5.3h-1.59c-1.98,0-3.72-1.54-4.81-4.76l-4.26-12.58c-.54-1.54-1.24-3.32-1.68-4.36-.79,4.26-1.29,16.25-1.29,21.7h-2.08c-2.23,0-3.77-1.44-3.77-3.96,0-6.69,1.29-19.97,2.38-25.91h1.29c4.16,0,7.04,1.88,8.17,5.05l4.16,11.69c.89,2.53,1.44,4.31,1.68,5.7.25-1.14.5-2.08.84-3.07l3.47-10.6c1.54-4.71,3.37-7.78,4.66-8.77h.69c3.37,0,5.45,2.08,5.95,6.19.55,4.71,1.44,17.69,1.44,23.68h-2.23Z"/>
        <path class="cls-1" d="m182.51,282.96c-2.48,0-3.81-1.44-4.01-2.87-.3-1.98-.5-3.47-.79-4.76h-11.94c-.59,2.53-1.14,5.1-1.54,7.63h-2.33c-1.98,0-2.73-1.04-2.73-2.87,0-4.31,5.55-21.9,10.16-27h2.43c2.28,0,4.01,1.34,4.86,2.77,2.68,4.81,7.18,17.79,8.37,27.1h-2.48Zm-10.8-24.38c-1.73,3.12-3.62,7.83-4.61,11.99h9.22c-.99-4.16-3.02-9.21-4.61-11.99Z"/>
        <path class="cls-1" d="m208.43,283.16c-1.93,0-3.57-.74-4.36-2.63l-2.23-5.4c-1.34-3.27-2.63-3.52-4.16-3.77-1.34-.2-2.38-.4-2.97-.4v11.99h-1.93c-2.68,0-4.06-1.63-4.06-4.01v-25.02c1.29-.5,5.45-1.09,7.68-1.09h3.32c5.95,0,9.81,3.57,9.81,8.57,0,4.06-2.68,7.43-6.14,7.93,1.59.69,2.97,2.48,3.72,4.21l2.38,5.6c.74,1.73,1.49,2.53,1.83,3.07-.69.74-1.24.94-2.87.94Zm-11.1-25.17c-.54,0-1.98.1-2.63.3v7.88c1.29.25,2.63.25,4.26.25,2.43,0,4.51-1.39,4.51-4.01,0-3.62-1.83-4.41-4.46-4.41h-1.68Z"/>
        <path class="cls-1" d="m221.95,257.1v9.31c2.68-3.91,5.3-7.98,8.57-11.5,1.59-1.68,2.23-1.83,4.56-1.83h4.11v.25c-2.33,2.33-8.27,9.46-11.25,13.72,2.77,4.06,5.4,8.62,9.27,11.79.84.69,1.49,1.04,2.38,1.24-.54,2.13-1.49,3.02-3.86,3.02-1.44,0-3.12-.74-4.16-1.93-3.67-4.21-6.64-8.57-9.61-13.28v15.06h-1.98c-2.87,0-3.91-1.98-3.91-4.06v-25.81h1.93c2.87,0,3.96,1.93,3.96,4.01Z"/>
        <path class="cls-1" d="m263.63,279.5c0,2.38-1.34,3.67-6.54,3.67h-3.17c-7.28,0-11.1-4.01-11.1-11.64v-5.5c0-2.87.2-6.04.54-8.42.5-3.57,2.13-4.51,4.61-4.51h15.61v2.03c0,2.08-1.29,3.12-4.01,3.12h-10.26c-.3,2.18-.45,5.1-.45,6.99h11.49v2.13c0,1.98-1.19,2.72-3.62,2.72h-7.88v1.78c0,5.15,1.68,6.19,6.34,6.19h1.88c2.18,0,4.41-.2,6.54-.69v2.13Z"/>
        <path class="cls-1" d="m285.08,258.34h-5.5v24.62h-2.38c-2.08,0-3.62-1.34-3.62-4.01v-20.61h-8.62v-1.98c0-1.44,1.19-3.27,3.62-3.27h20.07v1.88c0,1.44-1.59,3.37-3.57,3.37Z"/>
      </g>
    </g>
  </g>
</svg>